# xmcd
# 
# Track frame offsets:
#     150
#     15454
#     31149
#     45123
#     57727
#     69906
#     83043
#     93308
#     105071
#     117018
#     129380
#     141849
#     152549
#     166341
#     178226
#     190464
#     203604
#     216098
#     231847
#     246647
# 
# Disc length: 3456
# 
# Revision: 3
# Processed by: cddbd v1.5.2PL0 Copyright (c) Steve Scherf et al.
# Submitted via: BonkEnc v1.0.8
# 
DISCID=030d7e14
DTITLE=Various Artist - Diggin' Deeper: 200 Legendary Blues Treasures [disc 1]
DYEAR=2004
DGENRE=Blues
TTITLE0=Muddy Waters - Country Blues
TTITLE1=Bessie Smith - Outside of That
TTITLE2=Kokomo Arnold - Backfence Picket Blues
TTITLE3=John Lee Williamson - Black Gal Blues
TTITLE4=Big Bill Bronzy - Mississippi River Blues
TTITLE5=Leadbelly - Good Morning Blues
TTITLE6=Lightnin' Hopkins - Down Baby
TTITLE7=Arthur "Big Boy" Crudup - Mean Old Frisco Blues
TTITLE8=Robert Johnson - When You Got a Good Friend
TTITLE9=Brownie McGhee - Picking My Tomatoes
TTITLE10=Mississippi John Hurt - Candy Man Blues
TTITLE11=Bukka White - Good Gin Blues
TTITLE12=Blind Willie McTell - Georgia Rag
TTITLE13=Sleepy John Estes - Jack and Jill Blues
TTITLE14=Ma Rainey - Stormy Sea Blues
TTITLE15=Memphis Minnie - Frisco Town
TTITLE16=Blind Boy Fuller and Sonny Terry - Train Whistle Blues
TTITLE17=John Lee Hooker - Black Man Blues
TTITLE18=Jimmy Yancey - Jimmy's Stuff
TTITLE19=Joe Turner - Sun Risin' Blues
EXTD=10CD: Documents/Membran 222024-321 (2004), EAN 4011222220240, ISBN 978-3-87562-765-8.
EXTT0=(McKinley Morganfield)
EXTT1=(C. Williams/J.H. Trent)
EXTT2=(James Arnold)
EXTT3=(Sonny Boy Williamson [I])
EXTT4=(Bill Broonzy)
EXTT5=(H. Ledbetter/A. Lomax)
EXTT6=(Sam Hopkins)
EXTT7=(A. Crudup/R. Knowling)
EXTT8=(Robert Johnson)
EXTT9=(Walter McGhee)
EXTT10=(John Hurt)
EXTT11=(Bukka White)
EXTT12=(Willie McTell)
EXTT13=(John Estes)
EXTT14=(trad./Ma Rainey)
EXTT15=(McCoy/Lawler)
EXTT16=(Sonny Terry)
EXTT17=(John Lee Hooker)
EXTT18=(Jimmy Yancey)
EXTT19=(Turner)
PLAYORDER=
